# xmcd CD database file
#
# Track frame offsets:
#	150
#	25925
#	43827
#	68562
#	96840
#	121432
#
# Disc length: 1973 seconds
#
# Revision: 5
# Processed by: cddbd v1.5.1PL0 Copyright (c) Steve Scherf et al.
# Submitted via: CDex 1.51
#
DISCID=4b07b306
DTITLE=Eugen Cicero - Rokoko-Jazz
DYEAR=1965
DGENRE=Jazz
TTITLE0=Solfeggio C-Moll
TTITLE1=Sonate C-Dur
TTITLE2=L'adolescente
TTITLE3=Bach's Softly Sunrise
TTITLE4=Fantasie In D-Moll (Andante, Adagio, Allegretto)
TTITLE5=Erbarme Dich Mein Gott (Aus Matthus-Passion)
EXTD=YEAR: 1965
EXTT0=
EXTT1=
EXTT2=
EXTT3=
EXTT4=
EXTT5=
PLAYORDER=
